<svg width="12" height="14" viewBox="0 0 12 14" fill="none" xmlns="http://www.w3.org/2000/svg">
<path fill-rule="evenodd" clip-rule="evenodd" d="M3.21533 1.24531C3.3038 0.979705 3.47362 0.748681 3.70073 0.58499C3.92784 0.421299 4.20071 0.333246 4.48067 0.333313H7.51933C7.79929 0.333246 8.07216 0.421299 8.29927 0.58499C8.52638 0.748681 8.6962 0.979705 8.78467 1.24531L9.14667 2.33331H11.3333C11.5101 2.33331 11.6797 2.40355 11.8047 2.52858C11.9298 2.6536 12 2.82317 12 2.99998C12 3.17679 11.9298 3.34636 11.8047 3.47138C11.6797 3.59641 11.5101 3.66665 11.3333 3.66665H10.6667V11.6666C10.6667 12.1971 10.456 12.7058 10.0809 13.0809C9.70581 13.4559 9.1971 13.6666 8.66667 13.6666H3.33333C2.8029 13.6666 2.29419 13.4559 1.91912 13.0809C1.54405 12.7058 1.33333 12.1971 1.33333 11.6666V3.66665H0.666667C0.489856 3.66665 0.320286 3.59641 0.195262 3.47138C0.0702379 3.34636 0 3.17679 0 2.99998C0 2.82317 0.0702379 2.6536 0.195262 2.52858C0.320286 2.40355 0.489856 2.33331 0.666667 2.33331H2.85333L3.21533 1.24531ZM4.258 2.33331L4.48067 1.66665H7.51933L7.742 2.33331H4.258Z" fill="#323749"/>
</svg>
