<svg width="19" height="19" viewBox="0 0 19 19" fill="none" xmlns="http://www.w3.org/2000/svg">
<rect width="19" height="19" fill="#1E1E1E"/>
<g id="Group 1253">
<g id="Frame 7">
<rect width="375" height="2447" transform="translate(-177 -43)" fill="white"/>
<g id="Group 1246">
<rect id="Rectangle 191" x="-177" y="-6" width="375" height="116" fill="#E6E6E6"/>
</g>
<g id="Group 153">
<path id="Home/All ites" d="M-35.0129 10.5V21H-36.9629V16.5H-42.3929V21H-44.3429V10.5H-42.3929V14.835H-36.9629V10.5H-35.0129ZM-28.0294 21.105C-28.8394 21.105 -29.5694 20.93 -30.2194 20.58C-30.8694 20.23 -31.3794 19.745 -31.7494 19.125C-32.1094 18.495 -32.2894 17.785 -32.2894 16.995C-32.2894 16.205 -32.1094 15.5 -31.7494 14.88C-31.3794 14.26 -30.8694 13.775 -30.2194 13.425C-29.5694 13.075 -28.8394 12.9 -28.0294 12.9C-27.2094 12.9 -26.4744 13.075 -25.8244 13.425C-25.1744 13.775 -24.6694 14.26 -24.3094 14.88C-23.9394 15.5 -23.7544 16.205 -23.7544 16.995C-23.7544 17.785 -23.9394 18.495 -24.3094 19.125C-24.6694 19.745 -25.1744 20.23 -25.8244 20.58C-26.4744 20.93 -27.2094 21.105 -28.0294 21.105ZM-28.0294 19.5C-27.3394 19.5 -26.7694 19.27 -26.3194 18.81C-25.8694 18.35 -25.6444 17.745 -25.6444 16.995C-25.6444 16.245 -25.8694 15.64 -26.3194 15.18C-26.7694 14.72 -27.3394 14.49 -28.0294 14.49C-28.7194 14.49 -29.2894 14.72 -29.7394 15.18C-30.1794 15.64 -30.3994 16.245 -30.3994 16.995C-30.3994 17.745 -30.1794 18.35 -29.7394 18.81C-29.2894 19.27 -28.7194 19.5 -28.0294 19.5ZM-11.1014 12.9C-10.0914 12.9 -9.29141 13.195 -8.70141 13.785C-8.11141 14.365 -7.81641 15.24 -7.81641 16.41V21H-9.69141V16.65C-9.69141 15.95 -9.84641 15.425 -10.1564 15.075C-10.4664 14.715 -10.9114 14.535 -11.4914 14.535C-12.1214 14.535 -12.6264 14.745 -13.0064 15.165C-13.3864 15.575 -13.5764 16.165 -13.5764 16.935V21H-15.4514V16.65C-15.4514 15.95 -15.6064 15.425 -15.9164 15.075C-16.2264 14.715 -16.6714 14.535 -17.2514 14.535C-17.8914 14.535 -18.4014 14.74 -18.7814 15.15C-19.1514 15.56 -19.3364 16.155 -19.3364 16.935V21H-21.2114V12.99H-19.4264V14.01C-19.1264 13.65 -18.7514 13.375 -18.3014 13.185C-17.8514 12.995 -17.3514 12.9 -16.8014 12.9C-16.2014 12.9 -15.6714 13.015 -15.2114 13.245C-14.7414 13.465 -14.3714 13.795 -14.1014 14.235C-13.7714 13.815 -13.3464 13.49 -12.8264 13.26C-12.3064 13.02 -11.7314 12.9 -11.1014 12.9ZM2.93285 17.04C2.93285 17.17 2.92285 17.355 2.90285 17.595H-3.38215C-3.27215 18.185 -2.98715 18.655 -2.52715 19.005C-2.05715 19.345 -1.47715 19.515 -0.787148 19.515C0.0928519 19.515 0.817852 19.225 1.38785 18.645L2.39285 19.8C2.03285 20.23 1.57785 20.555 1.02785 20.775C0.477852 20.995 -0.142148 21.105 -0.832148 21.105C-1.71215 21.105 -2.48715 20.93 -3.15715 20.58C-3.82715 20.23 -4.34715 19.745 -4.71715 19.125C-5.07715 18.495 -5.25715 17.785 -5.25715 16.995C-5.25715 16.215 -5.08215 15.515 -4.73215 14.895C-4.37215 14.265 -3.87715 13.775 -3.24715 13.425C-2.61715 13.075 -1.90715 12.9 -1.11715 12.9C-0.337148 12.9 0.357852 13.075 0.967852 13.425C1.58785 13.765 2.06785 14.25 2.40785 14.88C2.75785 15.5 2.93285 16.22 2.93285 17.04ZM-1.11715 14.4C-1.71715 14.4 -2.22715 14.58 -2.64715 14.94C-3.05715 15.29 -3.30715 15.76 -3.39715 16.35H1.14785C1.06785 15.77 0.822852 15.3 0.412852 14.94C0.0028519 14.58 -0.507148 14.4 -1.11715 14.4ZM8.75391 8.37H10.4339L5.48391 22.5H3.80391L8.75391 8.37ZM18.1897 18.57H12.9397L11.9047 21H9.89473L14.6197 10.5H16.5397L21.2797 21H19.2397L18.1897 18.57ZM17.5447 17.04L15.5647 12.45L13.5997 17.04H17.5447ZM23.1851 9.87H25.0601V21H23.1851V9.87ZM28.271 9.87H30.146V21H28.271V9.87ZM38.2525 12.99H40.1275V21H38.2525V12.99ZM39.1975 11.67C38.8575 11.67 38.5725 11.565 38.3425 11.355C38.1125 11.135 37.9975 10.865 37.9975 10.545C37.9975 10.225 38.1125 9.96 38.3425 9.75C38.5725 9.53 38.8575 9.42 39.1975 9.42C39.5375 9.42 39.8225 9.525 40.0525 9.735C40.2825 9.935 40.3975 10.19 40.3975 10.5C40.3975 10.83 40.2825 11.11 40.0525 11.34C39.8325 11.56 39.5475 11.67 39.1975 11.67ZM48.1534 20.565C47.9334 20.745 47.6634 20.88 47.3434 20.97C47.0334 21.06 46.7034 21.105 46.3534 21.105C45.4734 21.105 44.7934 20.875 44.3134 20.415C43.8334 19.955 43.5934 19.285 43.5934 18.405V14.55H42.2734V13.05H43.5934V11.22H45.4684V13.05H47.6134V14.55H45.4684V18.36C45.4684 18.75 45.5634 19.05 45.7534 19.26C45.9434 19.46 46.2184 19.56 46.5784 19.56C46.9984 19.56 47.3484 19.45 47.6284 19.23L48.1534 20.565ZM57.7121 17.04C57.7121 17.17 57.7021 17.355 57.6821 17.595H51.3971C51.5071 18.185 51.7921 18.655 52.2521 19.005C52.7221 19.345 53.3021 19.515 53.9921 19.515C54.8721 19.515 55.5971 19.225 56.1671 18.645L57.1721 19.8C56.8121 20.23 56.3571 20.555 55.8071 20.775C55.2571 20.995 54.6371 21.105 53.9471 21.105C53.0671 21.105 52.2921 20.93 51.6221 20.58C50.9521 20.23 50.4321 19.745 50.0621 19.125C49.7021 18.495 49.5221 17.785 49.5221 16.995C49.5221 16.215 49.6971 15.515 50.0471 14.895C50.4071 14.265 50.9021 13.775 51.5321 13.425C52.1621 13.075 52.8721 12.9 53.6621 12.9C54.4421 12.9 55.1371 13.075 55.7471 13.425C56.3671 13.765 56.8471 14.25 57.1871 14.88C57.5371 15.5 57.7121 16.22 57.7121 17.04ZM53.6621 14.4C53.0621 14.4 52.5521 14.58 52.1321 14.94C51.7221 15.29 51.4721 15.76 51.3821 16.35H55.9271C55.8471 15.77 55.6021 15.3 55.1921 14.94C54.7821 14.58 54.2721 14.4 53.6621 14.4ZM62.7382 21.105C62.0882 21.105 61.4532 21.02 60.8332 20.85C60.2132 20.68 59.7182 20.465 59.3482 20.205L60.0682 18.78C60.4282 19.02 60.8582 19.215 61.3582 19.365C61.8682 19.505 62.3682 19.575 62.8582 19.575C63.9782 19.575 64.5382 19.28 64.5382 18.69C64.5382 18.41 64.3932 18.215 64.1032 18.105C63.8232 17.995 63.3682 17.89 62.7382 17.79C62.0782 17.69 61.5382 17.575 61.1182 17.445C60.7082 17.315 60.3482 17.09 60.0382 16.77C59.7382 16.44 59.5882 15.985 59.5882 15.405C59.5882 14.645 59.9032 14.04 60.5332 13.59C61.1732 13.13 62.0332 12.9 63.1132 12.9C63.6632 12.9 64.2132 12.965 64.7632 13.095C65.3132 13.215 65.7632 13.38 66.1132 13.59L65.3932 15.015C64.7132 14.615 63.9482 14.415 63.0982 14.415C62.5482 14.415 62.1282 14.5 61.8382 14.67C61.5582 14.83 61.4182 15.045 61.4182 15.315C61.4182 15.615 61.5682 15.83 61.8682 15.96C62.1782 16.08 62.6532 16.195 63.2932 16.305C63.9332 16.405 64.4582 16.52 64.8682 16.65C65.2782 16.78 65.6282 17 65.9182 17.31C66.2182 17.62 66.3682 18.06 66.3682 18.63C66.3682 19.38 66.0432 19.98 65.3932 20.43C64.7432 20.88 63.8582 21.105 62.7382 21.105Z" fill="#969595"/>
</g>
<g id="Group 151">
<rect id="Rectangle 191_2" x="-177" y="-43" width="375" height="2447" fill="black" fill-opacity="0.45"/>
</g>
<rect id="Rectangle 828" x="-178" y="-43" width="375" height="867" fill="white"/>
<g id="Group 1254">
<rect id="Rectangle 621" x="18.3169" y="2.55078" width="22.352" height="3.3068" rx="1.6534" transform="rotate(135 18.3169 2.55078)" fill="#575757"/>
<rect id="Rectangle 622" x="2.33838" width="22.352" height="3.3068" rx="1.6534" transform="rotate(45 2.33838 0)" fill="#575757"/>
</g>
</g>
</g>
</svg>
